<svg xmlns="http://www.w3.org/2000/svg" viewBox="0 0 327.99 539.92"><defs><style>.cls-1,.cls-2,.cls-4{fill:none;stroke-miterlimit:10;}.cls-1,.cls-4{stroke:#f7f7f7;}.cls-1{stroke-width:7px;}.cls-2{stroke:#000;stroke-width:20px;}.cls-3{fill:#f70000;}.cls-4{stroke-width:5px;}</style></defs><g id="Cayomochka_2" data-name="Cayomochka 2"><path class="cls-1" d="M300,559.5l160-252L331,39.5q-9.5,134-19,268H288q-9.5-134-19-268l-129,268Z" transform="translate(-136 -26.11)"/></g><g id="Слой_5" data-name="Слой 5"><path class="cls-2" d="M300,536.5l146-229L340,89q-8,115.76-16,231.5H276Q268,204.75,260,89L154,307.5Z" transform="translate(-136 -26.11)"/></g><g id="Red"><path class="cls-3" d="M300,518,435,307,347,126q-7,102-14,204H267q-7-102-14-204L165,307Z" transform="translate(-136 -26.11)"/></g><g id="Cayomochka_1" data-name="Cayomochka 1"><path class="cls-4" d="M300,516.5l134-209-86-179-13.5,203h-69L252,128.5l-86,179Z" transform="translate(-136 -26.11)"/></g></svg>